<mxfile host="app.diagrams.net" modified="2023-09-30T11:00:32.749Z" agent="Mozilla/5.0 (Macintosh; Intel Mac OS X 10_15_7) AppleWebKit/605.1.15 (KHTML, like Gecko) Version/15.6 Safari/605.1.15" etag="UoAHtRwmOuOQaS0csGYY" version="21.8.2" type="google">
  <diagram name="Page-1" id="e9honjM6iFFVTxhf84v9">
    <mxGraphModel grid="1" page="1" gridSize="10" guides="1" tooltips="1" connect="1" arrows="1" fold="1" pageScale="1" pageWidth="850" pageHeight="1100" math="0" shadow="0">
      <root>
        <mxCell id="0" />
        <mxCell id="1" parent="0" />
        <mxCell id="ugzTAorwdK3rf6eQDW8n-1" value="" style="whiteSpace=wrap;html=1;aspect=fixed;fillColor=#000000;" vertex="1" parent="1">
          <mxGeometry x="20" y="-90" width="790" height="790" as="geometry" />
        </mxCell>
        <mxCell id="ugzTAorwdK3rf6eQDW8n-2" value="&lt;font style=&quot;font-size: 33px;&quot; color=&quot;#ff713d&quot;&gt;AWS&lt;/font&gt;" style="text;html=1;strokeColor=none;fillColor=none;align=center;verticalAlign=middle;whiteSpace=wrap;rounded=0;" vertex="1" parent="1">
          <mxGeometry x="40" y="-70" width="100" height="40" as="geometry" />
        </mxCell>
        <mxCell id="ugzTAorwdK3rf6eQDW8n-15" value="" style="rounded=0;whiteSpace=wrap;html=1;rotation=-90;fillColor=#009900;strokeColor=#009900;movable=0;resizable=0;rotatable=0;deletable=0;editable=0;locked=1;connectable=0;" vertex="1" parent="1">
          <mxGeometry x="78.44" y="-38.43" width="665.63" height="720" as="geometry" />
        </mxCell>
        <mxCell id="ugzTAorwdK3rf6eQDW8n-17" value="&lt;font style=&quot;font-size: 24px;&quot;&gt;VPC&lt;/font&gt;" style="text;html=1;strokeColor=none;fillColor=none;align=center;verticalAlign=middle;whiteSpace=wrap;rounded=0;" vertex="1" parent="1">
          <mxGeometry x="60" width="60" height="30" as="geometry" />
        </mxCell>
        <mxCell id="ugzTAorwdK3rf6eQDW8n-26" value="Private subnet" style="points=[[0,0],[0.25,0],[0.5,0],[0.75,0],[1,0],[1,0.25],[1,0.5],[1,0.75],[1,1],[0.75,1],[0.5,1],[0.25,1],[0,1],[0,0.75],[0,0.5],[0,0.25]];outlineConnect=0;gradientColor=none;html=1;whiteSpace=wrap;fontSize=12;fontStyle=0;container=1;pointerEvents=0;collapsible=0;recursiveResize=0;shape=mxgraph.aws4.group;grIcon=mxgraph.aws4.group_security_group;grStroke=0;strokeColor=#147EBA;fillColor=#E6F2F8;verticalAlign=top;align=left;spacingLeft=30;fontColor=#147EBA;dashed=0;" vertex="1" parent="1">
          <mxGeometry x="110" y="430" width="410" height="180" as="geometry" />
        </mxCell>
        <mxCell id="ugzTAorwdK3rf6eQDW8n-32" value="EC2 instance contents" style="points=[[0,0],[0.25,0],[0.5,0],[0.75,0],[1,0],[1,0.25],[1,0.5],[1,0.75],[1,1],[0.75,1],[0.5,1],[0.25,1],[0,1],[0,0.75],[0,0.5],[0,0.25]];outlineConnect=0;gradientColor=none;html=1;whiteSpace=wrap;fontSize=12;fontStyle=0;container=1;pointerEvents=0;collapsible=0;recursiveResize=0;shape=mxgraph.aws4.group;grIcon=mxgraph.aws4.group_ec2_instance_contents;strokeColor=#D86613;fillColor=none;verticalAlign=top;align=left;spacingLeft=30;fontColor=#D86613;dashed=0;" vertex="1" parent="ugzTAorwdK3rf6eQDW8n-26">
          <mxGeometry x="90" y="40" width="130" height="130" as="geometry" />
        </mxCell>
        <mxCell id="ugzTAorwdK3rf6eQDW8n-33" value="" style="outlineConnect=0;dashed=0;verticalLabelPosition=bottom;verticalAlign=top;align=center;html=1;shape=mxgraph.aws3.elastic_beanstalk;fillColor=#F58534;gradientColor=none;" vertex="1" parent="ugzTAorwdK3rf6eQDW8n-32">
          <mxGeometry x="35" y="50" width="40" height="67" as="geometry" />
        </mxCell>
        <mxCell id="ugzTAorwdK3rf6eQDW8n-34" value="URL Shortner" style="text;html=1;strokeColor=none;fillColor=none;align=center;verticalAlign=middle;whiteSpace=wrap;rounded=0;" vertex="1" parent="ugzTAorwdK3rf6eQDW8n-32">
          <mxGeometry x="25" y="100" width="60" height="30" as="geometry" />
        </mxCell>
        <mxCell id="ugzTAorwdK3rf6eQDW8n-27" value="Public subnet" style="points=[[0,0],[0.25,0],[0.5,0],[0.75,0],[1,0],[1,0.25],[1,0.5],[1,0.75],[1,1],[0.75,1],[0.5,1],[0.25,1],[0,1],[0,0.75],[0,0.5],[0,0.25]];outlineConnect=0;gradientColor=none;html=1;whiteSpace=wrap;fontSize=12;fontStyle=0;container=1;pointerEvents=0;collapsible=0;recursiveResize=0;shape=mxgraph.aws4.group;grIcon=mxgraph.aws4.group_security_group;grStroke=0;strokeColor=#248814;fillColor=#E9F3E6;verticalAlign=top;align=left;spacingLeft=30;fontColor=#248814;dashed=0;" vertex="1" parent="1">
          <mxGeometry x="110" y="90" width="410" height="200" as="geometry" />
        </mxCell>
        <mxCell id="ugzTAorwdK3rf6eQDW8n-29" value="EC2 instance contents" style="points=[[0,0],[0.25,0],[0.5,0],[0.75,0],[1,0],[1,0.25],[1,0.5],[1,0.75],[1,1],[0.75,1],[0.5,1],[0.25,1],[0,1],[0,0.75],[0,0.5],[0,0.25]];outlineConnect=0;gradientColor=none;html=1;whiteSpace=wrap;fontSize=12;fontStyle=0;container=1;pointerEvents=0;collapsible=0;recursiveResize=0;shape=mxgraph.aws4.group;grIcon=mxgraph.aws4.group_ec2_instance_contents;strokeColor=#D86613;fillColor=none;verticalAlign=top;align=left;spacingLeft=30;fontColor=#D86613;dashed=0;" vertex="1" parent="ugzTAorwdK3rf6eQDW8n-27">
          <mxGeometry x="80" y="40" width="130" height="130" as="geometry" />
        </mxCell>
        <mxCell id="ugzTAorwdK3rf6eQDW8n-39" value="JTester" style="text;html=1;strokeColor=none;fillColor=none;align=center;verticalAlign=middle;whiteSpace=wrap;rounded=0;" vertex="1" parent="ugzTAorwdK3rf6eQDW8n-29">
          <mxGeometry x="35" y="60" width="60" height="30" as="geometry" />
        </mxCell>
        <mxCell id="ugzTAorwdK3rf6eQDW8n-37" value="" style="outlineConnect=0;dashed=0;verticalLabelPosition=bottom;verticalAlign=top;align=center;html=1;shape=mxgraph.aws3.network_access_controllist;fillColor=#F58534;gradientColor=none;" vertex="1" parent="ugzTAorwdK3rf6eQDW8n-27">
          <mxGeometry x="360" y="-20" width="40" height="42" as="geometry" />
        </mxCell>
        <mxCell id="ugzTAorwdK3rf6eQDW8n-35" value="" style="outlineConnect=0;dashed=0;verticalLabelPosition=bottom;verticalAlign=top;align=center;html=1;shape=mxgraph.aws3.network_access_controllist;fillColor=#F58534;gradientColor=none;" vertex="1" parent="1">
          <mxGeometry x="470" y="410" width="40" height="42" as="geometry" />
        </mxCell>
        <mxCell id="ugzTAorwdK3rf6eQDW8n-36" value="Network ACL" style="text;html=1;strokeColor=none;fillColor=none;align=center;verticalAlign=middle;whiteSpace=wrap;rounded=0;" vertex="1" parent="1">
          <mxGeometry x="460" y="452" width="60" height="30" as="geometry" />
        </mxCell>
        <mxCell id="ugzTAorwdK3rf6eQDW8n-38" value="Network ACL" style="text;html=1;strokeColor=none;fillColor=none;align=center;verticalAlign=middle;whiteSpace=wrap;rounded=0;" vertex="1" parent="1">
          <mxGeometry x="460" y="100" width="60" height="30" as="geometry" />
        </mxCell>
        <mxCell id="ugzTAorwdK3rf6eQDW8n-41" value="" style="rounded=0;whiteSpace=wrap;html=1;fillColor=none;" vertex="1" parent="1">
          <mxGeometry x="78.44" y="40" width="631.56" height="590" as="geometry" />
        </mxCell>
        <mxCell id="ugzTAorwdK3rf6eQDW8n-42" value="&lt;font style=&quot;font-size: 20px;&quot;&gt;Availability&amp;nbsp;&lt;br&gt;&lt;font style=&quot;font-size: 20px;&quot;&gt;Zone&lt;/font&gt;&lt;/font&gt;" style="text;html=1;strokeColor=none;fillColor=none;align=center;verticalAlign=middle;whiteSpace=wrap;rounded=0;" vertex="1" parent="1">
          <mxGeometry x="630" y="60" width="60" height="30" as="geometry" />
        </mxCell>
        <mxCell id="ugzTAorwdK3rf6eQDW8n-48" value="1000 get request sent to url app" style="text;html=1;strokeColor=none;fillColor=none;align=center;verticalAlign=middle;whiteSpace=wrap;rounded=0;" vertex="1" parent="1">
          <mxGeometry x="80" y="250" width="60" height="30" as="geometry" />
        </mxCell>
        <mxCell id="ugzTAorwdK3rf6eQDW8n-49" value="" style="outlineConnect=0;dashed=0;verticalLabelPosition=bottom;verticalAlign=top;align=center;html=1;shape=mxgraph.aws3.internet_gateway;fillColor=#F58534;gradientColor=none;" vertex="1" parent="1">
          <mxGeometry x="41" y="298" width="69" height="72" as="geometry" />
        </mxCell>
        <mxCell id="ugzTAorwdK3rf6eQDW8n-50" value="Internet&amp;nbsp;&lt;br&gt;Gateway" style="text;html=1;strokeColor=none;fillColor=none;align=center;verticalAlign=middle;whiteSpace=wrap;rounded=0;" vertex="1" parent="1">
          <mxGeometry x="70" y="360" width="60" height="30" as="geometry" />
        </mxCell>
        <mxCell id="ugzTAorwdK3rf6eQDW8n-52" value="" style="shape=flexArrow;endArrow=classic;html=1;rounded=0;" edge="1" parent="1">
          <mxGeometry width="50" height="50" relative="1" as="geometry">
            <mxPoint x="139.99999999999977" y="210.05166196909357" as="sourcePoint" />
            <mxPoint x="80" y="210" as="targetPoint" />
          </mxGeometry>
        </mxCell>
        <mxCell id="ugzTAorwdK3rf6eQDW8n-55" value="" style="shape=flexArrow;endArrow=classic;html=1;rounded=0;" edge="1" parent="1">
          <mxGeometry width="50" height="50" relative="1" as="geometry">
            <mxPoint x="59.99999999999977" y="210.05166196909357" as="sourcePoint" />
            <mxPoint x="60" y="280" as="targetPoint" />
          </mxGeometry>
        </mxCell>
        <mxCell id="ugzTAorwdK3rf6eQDW8n-57" value="" style="shape=flexArrow;endArrow=classic;html=1;rounded=0;" edge="1" parent="1">
          <mxGeometry width="50" height="50" relative="1" as="geometry">
            <mxPoint x="59.99999999999977" y="420.00166196909356" as="sourcePoint" />
            <mxPoint x="60" y="489.95" as="targetPoint" />
          </mxGeometry>
        </mxCell>
        <mxCell id="ugzTAorwdK3rf6eQDW8n-63" value="" style="shape=flexArrow;endArrow=classic;html=1;rounded=0;" edge="1" parent="1">
          <mxGeometry width="50" height="50" relative="1" as="geometry">
            <mxPoint x="60" y="510" as="sourcePoint" />
            <mxPoint x="119.99999999999977" y="510.05166196909363" as="targetPoint" />
          </mxGeometry>
        </mxCell>
      </root>
    </mxGraphModel>
  </diagram>
</mxfile>
